<svg xmlns="http://www.w3.org/2000/svg" version="1.1" xmlns:xlink="http://www.w3.org/1999/xlink" xmlns:svgjs="http://svgjs.dev/svgjs" width="1000" height="1000" viewBox="0 0 1000 1000"><rect width="1000" height="1000" fill="#ffffff"></rect><g transform="matrix(0.7,0,0,0.7,149.57575757575756,282.1265587044535)"><svg viewBox="0 0 396 247" data-background-color="#ffffff" preserveAspectRatio="xMidYMid meet" height="623" width="1000" xmlns="http://www.w3.org/2000/svg" xmlns:xlink="http://www.w3.org/1999/xlink"><defs></defs><g id="tight-bounds" transform="matrix(1,0,0,1,0.2400000000000091,-0.09999999999999432)"><svg viewBox="0 0 395.52 247.2" height="247.2" width="395.52"><g><svg></svg></g><g><svg viewBox="0 0 395.52 247.2" height="247.2" width="395.52"><g transform="matrix(2.854481905057116, 0, 0, 2.854481905057116, 42.43425741967485, 0.9999999999999858)"><svg xmlns="http://www.w3.org/2000/svg" xmlns:xlink="http://www.w3.org/1999/xlink" version="1.1" x="0" y="0" viewBox="16.870620727539062 32.400001525878906 108.82937622070312 85.9000015258789" enable-background="new 0 0 144 144" xml:space="preserve" height="85.9000015258789" width="108.82937622070312" class="icon-none" data-fill-palette-color="accent" id="none"><path fill="#e65728" d="M124.8 56.4c-0.7-0.9-17.3-20-37.4-23.9-0.4-0.1-0.9-0.1-1.3-0.1-3.2 0-6.6 2.2-9.9 4.2-1.6 1-4 2.6-4.8 2.6-0.9-0.1-3.6-1.7-5.2-2.6-3.3-2-6.9-4-10.1-4-0.6 0-1 0-1.6 0.1C34.4 37 18.3 57 17.7 57.9c-1.3 1.6-1 3.9 0.4 5.2 0.6 0.4 8.8 7.3 22.2 12.8v11.4c0 17.1 13.8 31 31 31s31-13.8 31-31V76.6c14.1-6 22-14.7 22.5-15.1C126 60 126 57.9 124.8 56.4zM94.5 87.1c0 13-10.4 23.5-23.4 23.5s-23.5-10.5-23.5-23.5V70.6l0 0c0-5.8 4.9-8.4 9.5-8.4 4 0 8.1 1.9 11.4 5.2v16.1c0 1.4 1.3 2.6 2.7 2.6 1.4 0 2.7-1.2 2.7-2.6V67.4c3.3-3.3 7.3-5.2 11.4-5.2 4.6 0 9.2 2.6 9.2 8.4V87.1zM102 68.4c-1-7.9-7.9-13.7-16.7-13.7-4.9 0-9.8 1.7-14 5-4.2-3.3-9.1-5-14-5-8.6 0-15.4 5.5-16.7 13.1-6.6-2.9-11.5-6-14.5-8.1 5-5.5 16.7-16.7 30-19.6 1.2 0 4.3 1.9 6.3 3 3.3 2 6.2 3.6 8.9 3.6 2.7 0 5.6-1.7 8.8-3.7 1.7-1 4.9-3 5.8-3 13.5 2.6 25.8 13.7 30.8 18.7C113.9 61.2 109 65.1 102 68.4z" data-fill-palette-color="accent"></path><path fill="#e65728" d="M82.2 100.1c-4.2 0-7.5-3.5-7.5-7.5 0-3.5 4.6-10.4 5.9-12.4 0.7-1 2.4-1 3.2 0 1.4 2 5.9 8.9 5.9 12.4C89.7 96.6 86.4 100.1 82.2 100.1zM82.2 84.8c-2 3.2-3.6 6.5-3.6 7.6 0 2 1.6 3.6 3.6 3.6s3.6-1.6 3.6-3.6C85.8 91.3 84.1 88 82.2 84.8z" data-fill-palette-color="accent"></path></svg></g><rect width="348.05760000000004" height="98.88310554597433" fill="#ffffff" y="74.15844722701283" x="23.731199999999973" data-fill-palette-color="quaternary"></rect><g transform="matrix(1,0,0,1,39.55199999999999,84.56644828818045)"><svg viewBox="0 0 316.416 78.0671034236391" height="78.0671034236391" width="316.416"><g><svg viewBox="0 0 316.416 78.0671034236391" height="78.0671034236391" width="316.416"><g><svg viewBox="0 0 316.416 78.0671034236391" height="78.0671034236391" width="316.416"><g><svg viewBox="0 0 316.416 78.0671034236391" height="78.0671034236391" width="316.416"><g><svg viewBox="0 0 316.416 78.0671034236391" height="78.0671034236391" width="316.416"><g><svg viewBox="0 0 316.416 44.08750174167479" height="44.08750174167479" width="316.416"><g transform="matrix(1,0,0,1,0,0)"><svg width="316.416" viewBox="0.30000001192092896 -37.5 358.82000732421875 50" height="44.08750174167479" data-palette-color="#e65728"><path d="M6.65-34L6.65-34Q9.2-35.65 12.13-36.58 15.05-37.5 17.85-37.5L17.85-37.5Q18.2-37.5 18.63-37.48 19.05-37.45 19.85-37.4L19.85-37.4 20.3-6.65 30.8-37.25 37.35-37.25 37.35-6.65 48.1-37.25 51.6-37.25 37.7 0 30.3 0 30.3-25.45 20.4 0 13.05 0 13.05-34.15Q9.05-32.9 7-30.1 4.95-27.3 4.95-23.05L4.95-23.05Q4.95-22.1 5.08-21.4 5.2-20.7 5.5-20.05L5.5-20.05Q5.6-19.85 5.63-19.78 5.65-19.7 5.65-19.65L5.65-19.65Q2.85-19.65 1.58-20.83 0.3-22 0.3-24.5L0.3-24.5Q0.3-27 1.98-29.5 3.65-32 6.65-34ZM64.35-22.7L64.35-22.7 64.35-22.35 64.9-25 72.1-25 68.5-8Q68.4-7.55 68.35-7.18 68.3-6.8 68.3-6.4L68.3-6.4Q68.3-5.3 68.8-4.78 69.3-4.25 70.35-4.25L70.35-4.25Q71.65-4.25 72.7-5.48 73.75-6.7 74.4-8.95L74.4-8.95 76.5-8.95Q74.9-4.35 72.35-2.02 69.8 0.3 66.45 0.3L66.45 0.3Q64.3 0.3 63.02-0.9 61.75-2.1 61.55-4.3L61.55-4.3Q60-2 58.12-0.85 56.25 0.3 54.1 0.3L54.1 0.3Q51 0.3 49.22-1.8 47.45-3.9 47.45-7.75L47.45-7.75Q47.45-10.55 48.3-13.6 49.15-16.65 50.65-19.15L50.65-19.15Q52.5-22.1 54.95-23.68 57.4-25.25 60.3-25.25L60.3-25.25Q62.25-25.25 63.3-24.58 64.35-23.9 64.35-22.7ZM61.5-8.95L63.9-20.25Q63.9-21 63.35-21.58 62.8-22.15 61.85-22.15L61.85-22.15Q59.1-22.15 56.97-17.55 54.85-12.95 54.85-8.45L54.85-8.45Q54.85-6.5 55.4-5.53 55.95-4.55 57.35-4.55L57.35-4.55Q58.65-4.55 59.87-5.8 61.1-7.05 61.5-8.95L61.5-8.95ZM90-8.35L90-8.35Q90-7.75 89.95-7.3 89.9-6.85 89.8-6.45L89.8-6.45Q90.8-7.05 91.75-7.7 92.7-8.35 93.4-8.95L93.4-8.95 95.5-8.95Q93.95-7.15 92.07-5.63 90.2-4.1 87.85-2.7L87.85-2.7Q86.5-1.25 84.4-0.48 82.3 0.3 80 0.3L80 0.3Q76.65 0.3 74.67-1.53 72.7-3.35 72.7-6.1L72.7-6.1Q72.7-7.65 73.45-8.93 74.2-10.2 75.35-10.75L75.35-10.75Q77.05-13.8 78.52-17.28 80-20.75 81.5-25.55L81.5-25.55 88.9-26.55Q89.05-22.8 89.25-19.7 89.45-16.6 89.75-12.95L89.75-12.95Q89.9-10.85 89.95-10 90-9.15 90-8.35ZM81.8-20.15L81.8-20.15Q81.15-18.1 80.22-15.88 79.3-13.65 77.75-10.7L77.75-10.7Q78.3-10.45 78.6-10 78.9-9.55 78.9-8.95L78.9-8.95Q78.9-8 78.25-7.25 77.6-6.5 76.7-6.5L76.7-6.5Q76.2-6.5 75.85-6.68 75.5-6.85 75.35-7.15L75.35-7.15Q75.35-5.3 76.07-4.48 76.8-3.65 78.4-3.65L78.4-3.65Q80.45-3.65 81.6-4.85 82.75-6.05 82.75-8.3L82.75-8.3Q82.75-9 82.7-9.73 82.65-10.45 82.5-12.15L82.5-12.15Q82.25-14.5 82.1-16.3 81.95-18.1 81.8-20.15ZM94.74-23L95.14-25 96.79-25 98.29-31.9 105.69-32.9 103.99-25 106.99-25 106.59-23 103.59-23 100.39-8Q100.29-7.55 100.24-7.18 100.19-6.8 100.19-6.4L100.19-6.4Q100.19-5.4 100.67-4.98 101.14-4.55 102.24-4.55L102.24-4.55Q103.64-4.55 104.89-5.78 106.14-7 106.74-8.95L106.74-8.95 108.84-8.95Q107.24-4.4 104.54-2.05 101.84 0.3 98.34 0.3L98.34 0.3Q95.84 0.3 94.42-1.28 92.99-2.85 92.99-5.7L92.99-5.7Q92.99-6.35 93.09-7.18 93.19-8 93.39-8.95L93.39-8.95 96.39-23 94.74-23ZM122.99-22.7L122.99-22.7 122.99-22.35 123.54-25 130.74-25 127.14-8Q127.04-7.55 126.99-7.18 126.94-6.8 126.94-6.4L126.94-6.4Q126.94-5.3 127.44-4.78 127.94-4.25 128.99-4.25L128.99-4.25Q130.29-4.25 131.34-5.48 132.39-6.7 133.04-8.95L133.04-8.95 135.14-8.95Q133.54-4.35 130.99-2.02 128.44 0.3 125.09 0.3L125.09 0.3Q122.94 0.3 121.67-0.9 120.39-2.1 120.19-4.3L120.19-4.3Q118.64-2 116.77-0.85 114.89 0.3 112.74 0.3L112.74 0.3Q109.64 0.3 107.87-1.8 106.09-3.9 106.09-7.75L106.09-7.75Q106.09-10.55 106.94-13.6 107.79-16.65 109.29-19.15L109.29-19.15Q111.14-22.1 113.59-23.68 116.04-25.25 118.94-25.25L118.94-25.25Q120.89-25.25 121.94-24.58 122.99-23.9 122.99-22.7ZM120.14-8.95L122.54-20.25Q122.54-21 121.99-21.58 121.44-22.15 120.49-22.15L120.49-22.15Q117.74-22.15 115.62-17.55 113.49-12.95 113.49-8.45L113.49-8.45Q113.49-6.5 114.04-5.53 114.59-4.55 115.99-4.55L115.99-4.55Q117.29-4.55 118.52-5.8 119.74-7.05 120.14-8.95L120.14-8.95ZM149.29-22.7L149.29-22.7 149.29-22.4 149.84-25 157.04-25 152.09-1.8Q154.59-2.7 156.01-4.33 157.44-5.95 158.39-8.95L158.39-8.95 160.49-8.95Q159.34-5.15 157.21-2.85 155.09-0.55 151.64 0.4L151.64 0.4 150.89 4Q149.99 8.2 147.74 10.35 145.49 12.5 141.89 12.5L141.89 12.5Q139.34 12.5 137.81 11.2 136.29 9.9 136.29 7.65L136.29 7.65Q136.29 5.2 138.31 3.33 140.34 1.45 144.44 0.2L144.44 0.2 145.04-2.45Q143.74-1.1 142.24-0.4 140.74 0.3 139.04 0.3L139.04 0.3Q135.94 0.3 134.16-1.8 132.39-3.9 132.39-7.75L132.39-7.75Q132.39-10.55 133.24-13.6 134.09-16.65 135.59-19.15L135.59-19.15Q137.44-22.1 139.89-23.68 142.34-25.25 145.24-25.25L145.24-25.25Q147.19-25.25 148.24-24.58 149.29-23.9 149.29-22.7ZM146.29-8.45L148.84-20.3Q148.79-21.1 148.24-21.63 147.69-22.15 146.79-22.15L146.79-22.15Q144.04-22.15 141.91-17.55 139.79-12.95 139.79-8.45L139.79-8.45Q139.79-6.5 140.34-5.53 140.89-4.55 142.29-4.55L142.29-4.55Q143.49-4.55 144.66-5.65 145.84-6.75 146.29-8.45L146.29-8.45ZM143.64 4.15L143.94 2.7Q141.44 3.65 140.24 4.67 139.04 5.7 139.04 6.95L139.04 6.95Q139.04 7.6 139.54 8.1 140.04 8.6 140.74 8.6L140.74 8.6Q141.59 8.6 142.39 7.4 143.19 6.2 143.64 4.15L143.64 4.15ZM176.74-20.65L176.74-20.65Q176.74-16.5 173.34-13.43 169.94-10.35 165.24-10.1L165.24-10.1Q165.19-9.25 165.16-8.83 165.14-8.4 165.14-8.1L165.14-8.1Q165.14-5.8 165.91-4.85 166.69-3.9 168.74-3.9L168.74-3.9Q171.09-3.9 173.06-4.98 175.04-6.05 177.59-8.95L177.59-8.95 179.29-8.95Q176.39-4.25 172.99-1.98 169.59 0.3 165.54 0.3L165.54 0.3Q161.69 0.3 159.71-1.7 157.74-3.7 157.74-7.65L157.74-7.65Q157.74-10.5 158.64-13.7 159.54-16.9 161.04-19.4L161.04-19.4Q162.89-22.4 165.46-23.93 168.04-25.45 171.24-25.45L171.24-25.45Q173.99-25.45 175.36-24.28 176.74-23.1 176.74-20.65ZM171.64-22.8L171.64-22.8Q169.94-22.8 168.21-19.78 166.49-16.75 165.64-12.5L165.64-12.5Q168.54-12.7 170.71-15.18 172.89-17.65 172.89-20.75L172.89-20.75Q172.89-21.8 172.59-22.3 172.29-22.8 171.64-22.8ZM195.08-34L195.08-34Q197.63-35.65 200.56-36.58 203.48-37.5 206.28-37.5L206.28-37.5Q206.63-37.5 207.06-37.48 207.48-37.45 208.28-37.4L208.28-37.4 208.73-6.65 219.23-37.25 225.78-37.25 225.78-6.65 236.53-37.25 240.03-37.25 226.13 0 218.73 0 218.73-25.45 208.83 0 201.48 0 201.48-34.15Q197.48-32.9 195.43-30.1 193.38-27.3 193.38-23.05L193.38-23.05Q193.38-22.1 193.51-21.4 193.63-20.7 193.93-20.05L193.93-20.05Q194.03-19.85 194.06-19.78 194.08-19.7 194.08-19.65L194.08-19.65Q191.28-19.65 190.01-20.83 188.73-22 188.73-24.5L188.73-24.5Q188.73-27 190.41-29.5 192.08-32 195.08-34ZM245.83-19L241.83 0 234.63 0 239.93-25 247.13-25 246.48-21.9Q248.68-23.75 249.95-24.38 251.23-25 252.53-25L252.53-25Q254.08-25 255.03-23.93 255.98-22.85 255.98-21.25L255.98-21.25Q255.98-19.7 254.98-18.65 253.98-17.6 252.38-17.6L252.38-17.6Q251.53-17.6 251.05-18 250.58-18.4 250.38-19.65L250.38-19.65Q250.23-20.45 250.03-20.68 249.83-20.9 249.48-20.9L249.48-20.9Q248.63-20.9 247.88-20.55 247.13-20.2 245.83-19L245.83-19ZM273.58-20.65L273.58-20.65Q273.58-16.5 270.18-13.43 266.78-10.35 262.08-10.1L262.08-10.1Q262.03-9.25 262-8.83 261.98-8.4 261.98-8.1L261.98-8.1Q261.98-5.8 262.75-4.85 263.53-3.9 265.58-3.9L265.58-3.9Q267.93-3.9 269.9-4.98 271.88-6.05 274.43-8.95L274.43-8.95 276.13-8.95Q273.23-4.25 269.83-1.98 266.43 0.3 262.38 0.3L262.38 0.3Q258.53 0.3 256.55-1.7 254.58-3.7 254.58-7.65L254.58-7.65Q254.58-10.5 255.48-13.7 256.38-16.9 257.88-19.4L257.88-19.4Q259.73-22.4 262.3-23.93 264.88-25.45 268.08-25.45L268.08-25.45Q270.83-25.45 272.2-24.28 273.58-23.1 273.58-20.65ZM268.48-22.8L268.48-22.8Q266.78-22.8 265.05-19.78 263.33-16.75 262.48-12.5L262.48-12.5Q265.38-12.7 267.55-15.18 269.73-17.65 269.73-20.75L269.73-20.75Q269.73-21.8 269.43-22.3 269.13-22.8 268.48-22.8ZM293.67-20.85L293.67-20.85Q293.67-19.15 292.95-18.18 292.22-17.2 291.02-17.2L291.02-17.2Q290.62-17.2 290.17-17.35 289.72-17.5 289.27-17.8L289.27-17.8Q289.57-18.6 289.72-19.35 289.87-20.1 289.87-20.75L289.87-20.75Q289.87-21.75 289.52-22.28 289.17-22.8 288.47-22.8L288.47-22.8Q286.27-22.8 284.17-17.73 282.07-12.65 282.07-8.1L282.07-8.1Q282.07-5.8 282.85-4.85 283.62-3.9 285.67-3.9L285.67-3.9Q288.02-3.9 290-4.98 291.97-6.05 294.52-8.95L294.52-8.95 296.22-8.95Q293.32-4.25 289.92-1.98 286.52 0.3 282.47 0.3L282.47 0.3Q278.62 0.3 276.65-1.7 274.67-3.7 274.67-7.65L274.67-7.65Q274.67-10.5 275.55-13.7 276.42-16.9 277.97-19.4L277.97-19.4Q279.82-22.4 282.4-23.93 284.97-25.45 288.12-25.45L288.12-25.45Q290.87-25.45 292.27-24.28 293.67-23.1 293.67-20.85ZM299.87-34L307.27-35 303.52-17.4 313.17-25 318.12-25 308.12-18.05Q308.82-18.15 309.15-18.2 309.47-18.25 309.77-18.25L309.77-18.25Q312.32-18.25 313.8-16.65 315.27-15.05 315.27-12.4L315.27-12.4Q315.27-11.9 315.22-11.43 315.17-10.95 315.07-10.5L315.07-10.5 314.52-8Q314.42-7.4 314.35-7 314.27-6.6 314.27-6.4L314.27-6.4Q314.27-5.45 314.75-5 315.22-4.55 316.22-4.55L316.22-4.55Q317.47-4.55 318.37-5.4 319.27-6.25 320.42-8.95L320.42-8.95 322.52-8.95Q320.97-4.35 318.67-2.02 316.37 0.3 313.32 0.3L313.32 0.3Q310.27 0.3 308.65-1.18 307.02-2.65 307.02-5.4L307.02-5.4Q307.02-6 307.1-6.65 307.17-7.3 307.32-8L307.32-8 307.72-9.95Q307.82-10.4 307.87-10.85 307.92-11.3 307.92-11.8L307.92-11.8Q307.92-13 307.47-13.6 307.02-14.2 306.12-14.2L306.12-14.2Q305.37-14.2 304.5-13.78 303.62-13.35 302.42-12.35L302.42-12.35 299.82 0 292.62 0 299.87-34ZM338.77-20.65L338.77-20.65Q338.77-16.5 335.37-13.43 331.97-10.35 327.27-10.1L327.27-10.1Q327.22-9.25 327.19-8.83 327.17-8.4 327.17-8.1L327.17-8.1Q327.17-5.8 327.94-4.85 328.72-3.9 330.77-3.9L330.77-3.9Q333.12-3.9 335.09-4.98 337.07-6.05 339.62-8.95L339.62-8.95 341.32-8.95Q338.42-4.25 335.02-1.98 331.62 0.3 327.57 0.3L327.57 0.3Q323.72 0.3 321.74-1.7 319.77-3.7 319.77-7.65L319.77-7.65Q319.77-10.5 320.67-13.7 321.57-16.9 323.07-19.4L323.07-19.4Q324.92-22.4 327.49-23.93 330.07-25.45 333.27-25.45L333.27-25.45Q336.02-25.45 337.39-24.28 338.77-23.1 338.77-20.65ZM333.67-22.8L333.67-22.8Q331.97-22.8 330.24-19.78 328.52-16.75 327.67-12.5L327.67-12.5Q330.57-12.7 332.74-15.18 334.92-17.65 334.92-20.75L334.92-20.75Q334.92-21.8 334.62-22.3 334.32-22.8 333.67-22.8ZM348.97-19L344.97 0 337.77 0 343.06-25 350.27-25 349.62-21.9Q351.81-23.75 353.09-24.38 354.37-25 355.67-25L355.67-25Q357.22-25 358.17-23.93 359.12-22.85 359.12-21.25L359.12-21.25Q359.12-19.7 358.12-18.65 357.12-17.6 355.52-17.6L355.52-17.6Q354.67-17.6 354.19-18 353.72-18.4 353.52-19.65L353.52-19.65Q353.37-20.45 353.17-20.68 352.97-20.9 352.62-20.9L352.62-20.9Q351.77-20.9 351.02-20.55 350.27-20.2 348.97-19L348.97-19Z" opacity="1" transform="matrix(1,0,0,1,0,0)" fill="#e65728" class="undefined-text-0" data-fill-palette-color="primary" id="text-0"></path></svg></g></svg></g><g transform="matrix(1,0,0,1,0,54.49550280284241)"><svg viewBox="0 0 316.416 23.571600620796687" height="23.571600620796687" width="316.416"><g transform="matrix(1,0,0,1,0,0)"><svg width="316.416" viewBox="3.5 -35 483.20001220703125 36" height="23.571600620796687" data-palette-color="#e65728"><path d="M15.65-26.3L19.75-10.85 20.05-10.85 24.15-26.3Q25.45-31.3 28.15-33.15 30.85-35 36.3-35L36.3-35 36.3 0 31.6 0 31.6-29.7Q30.3-29.15 29.63-28.15 28.95-27.15 28.35-25.15L28.35-25.15 22.1-3.7 17.7-3.7 11.4-25.15Q10.8-27.2 10.15-28.18 9.5-29.15 8.2-29.7L8.2-29.7 8.2 0 3.5 0 3.5-35Q8.95-35 11.63-33.13 14.3-31.25 15.65-26.3L15.65-26.3ZM45.55-20.85L45.55-20.85Q49.05-24.5 54.3-24.5L54.3-24.5Q56.85-24.5 59.07-23.53 61.3-22.55 62.97-20.85 64.65-19.15 65.6-16.88 66.55-14.6 66.55-12L66.55-12Q66.55-9.4 65.62-7.13 64.7-4.85 63.05-3.15 61.4-1.45 59.15-0.48 56.9 0.5 54.3 0.5L54.3 0.5Q51.65 0.5 49.42-0.48 47.2-1.45 45.55-3.15 43.9-4.85 42.97-7.13 42.05-9.4 42.05-12L42.05-12Q42.05-17.3 45.55-20.85ZM54.3-20.3L54.3-20.3Q50.8-20.3 48.67-18 46.55-15.7 46.55-12 46.55-8.3 48.67-6 50.8-3.7 54.3-3.7L54.3-3.7Q57.85-3.7 59.95-6.03 62.05-8.35 62.05-12 62.05-15.65 59.95-17.98 57.85-20.3 54.3-20.3ZM75.45 0L71.05 0 71.05-13.65Q71.05-19.4 73.2-21.6L73.2-21.6Q74.25-22.7 75.75-23.25 77.25-23.8 78.37-23.9 79.5-24 81.45-24L81.45-24 85.85-24 85.85-19.8 80.55-19.8Q79.55-19.8 79-19.75 78.45-19.7 77.7-19.4 76.95-19.1 76.4-18.45L76.4-18.45Q75.45-17.25 75.45-13.65L75.45-13.65 75.45 0ZM100.84-24.5L100.84-24.5Q109.34-24.15 109.34-17.45L109.34-17.45Q109.34-9.1 98.39-9.1L98.39-9.1 96.34-9.1 96.34-12.95 98.74-12.95Q102.09-12.95 103.39-13.98 104.69-15 104.69-17.4L104.69-17.4Q104.69-18.95 103.54-19.73 102.39-20.5 100.59-20.5L100.59-20.5Q97.04-20.5 95.02-18 92.99-15.5 92.99-12L92.99-12Q92.99-8.3 95.17-6 97.34-3.7 100.84-3.7L100.84-3.7Q103.99-3.7 105.99-5.25L105.99-5.25 108.99-2.3Q105.54 0.5 100.84 0.5L100.84 0.5Q95.14 0.5 91.74-2.85 88.34-6.2 88.34-11.5L88.34-11.5Q88.34-17.4 91.69-21.05 95.04-24.7 100.84-24.5ZM132.89-30.6L124.24-30.6 124.24-35 146.24-35 146.24-30.6 137.59-30.6 137.59 0 132.89 0 132.89-30.6ZM163.84-14.1L163.84-14.1 163.84-9.6Q161.94-11.05 159.19-11.05L159.19-11.05Q156.84-11.05 155.54-10.13 154.24-9.2 154.24-7.5L154.24-7.5Q154.24-4.2 159.14-4.2L159.14-4.2 165.74-4.2 165.74-13.75Q165.74-19.8 159.84-19.8L159.84-19.8 151.84-19.8 151.84-24 160.09-24Q164.94-24 167.54-21.6 170.14-19.2 170.14-14.7L170.14-14.7 170.14 0 158.99 0Q154.74 0 152.24-1.9 149.74-3.8 149.74-7.45 149.74-11.1 152.39-13 155.04-14.9 159.04-14.9L159.04-14.9Q161.29-14.9 163.84-14.1ZM183.43-24L192.28-24 192.28-19.8 183.43-19.8Q181.98-19.8 180.93-19.25 179.88-18.7 179.88-17.7L179.88-17.7Q179.88-17.1 180.13-16.63 180.38-16.15 180.71-15.85 181.03-15.55 181.71-15.23 182.38-14.9 182.76-14.78 183.13-14.65 185.93-13.75 188.73-12.85 190.08-12.25 191.43-11.65 192.16-10.63 192.88-9.6 193.08-8.63 193.28-7.65 193.28-6.7L193.28-6.7Q193.28 0 184.08 0L184.08 0 175.43 0 175.43-4.2 184.08-4.2Q188.78-4.2 188.78-6.7L188.78-6.7Q188.78-7.9 187.41-8.7 186.03-9.5 184.06-10.05 182.08-10.6 180.11-11.33 178.13-12.05 176.76-13.68 175.38-15.3 175.38-17.7L175.38-17.7Q175.38-20.75 177.73-22.38 180.08-24 183.43-24L183.43-24ZM200.23-19.8L195.78-19.8 204.73-28.75 204.73-24 211.48-24 211.48-19.8 204.73-19.8 204.73-9.5Q204.73-7.75 205.31-6.6 205.88-5.45 206.98-4.98 208.08-4.5 209.06-4.35 210.03-4.2 211.48-4.2L211.48-4.2 211.48 0Q205.73 0 202.98-2.2 200.23-4.4 200.23-9.5L200.23-9.5 200.23-19.8ZM227.98-24.5L227.98-24.5Q236.48-24.15 236.48-17.45L236.48-17.45Q236.48-9.1 225.53-9.1L225.53-9.1 223.48-9.1 223.48-12.95 225.88-12.95Q229.23-12.95 230.53-13.98 231.83-15 231.83-17.4L231.83-17.4Q231.83-18.95 230.68-19.73 229.53-20.5 227.73-20.5L227.73-20.5Q224.18-20.5 222.15-18 220.13-15.5 220.13-12L220.13-12Q220.13-8.3 222.3-6 224.48-3.7 227.98-3.7L227.98-3.7Q231.13-3.7 233.13-5.25L233.13-5.25 236.13-2.3Q232.68 0.5 227.98 0.5L227.98 0.5Q222.28 0.5 218.88-2.85 215.48-6.2 215.48-11.5L215.48-11.5Q215.48-17.4 218.83-21.05 222.18-24.7 227.98-24.5ZM264.42-4.4L272.97-4.4 272.97 0 265.67 0Q263.62 0 262.45-0.08 261.27-0.15 259.52-0.68 257.77-1.2 256.57-2.25L256.57-2.25Q254.72-3.95 254.17-6.33 253.62-8.7 253.62-11.9L253.62-11.9 253.62-35 258.32-35 258.32-12Q258.32-9.1 258.97-7.45L258.97-7.45Q260.27-4.4 264.42-4.4L264.42-4.4ZM288.97-24.5L288.97-24.5Q297.47-24.15 297.47-17.45L297.47-17.45Q297.47-9.1 286.52-9.1L286.52-9.1 284.47-9.1 284.47-12.95 286.87-12.95Q290.22-12.95 291.52-13.98 292.82-15 292.82-17.4L292.82-17.4Q292.82-18.95 291.67-19.73 290.52-20.5 288.72-20.5L288.72-20.5Q285.17-20.5 283.15-18 281.12-15.5 281.12-12L281.12-12Q281.12-8.3 283.3-6 285.47-3.7 288.97-3.7L288.97-3.7Q292.12-3.7 294.12-5.25L294.12-5.25 297.12-2.3Q293.67 0.5 288.97 0.5L288.97 0.5Q283.27 0.5 279.87-2.85 276.47-6.2 276.47-11.5L276.47-11.5Q276.47-17.4 279.82-21.05 283.17-24.7 288.97-24.5ZM310.27-24L319.12-24 319.12-19.8 310.27-19.8Q308.82-19.8 307.77-19.25 306.72-18.7 306.72-17.7L306.72-17.7Q306.72-17.1 306.97-16.63 307.22-16.15 307.54-15.85 307.87-15.55 308.54-15.23 309.22-14.9 309.59-14.78 309.97-14.65 312.77-13.75 315.57-12.85 316.92-12.25 318.27-11.65 318.99-10.63 319.72-9.6 319.92-8.63 320.12-7.65 320.12-6.7L320.12-6.7Q320.12 0 310.92 0L310.92 0 302.27 0 302.27-4.2 310.92-4.2Q315.62-4.2 315.62-6.7L315.62-6.7Q315.62-7.9 314.24-8.7 312.87-9.5 310.89-10.05 308.92-10.6 306.94-11.33 304.97-12.05 303.59-13.68 302.22-15.3 302.22-17.7L302.22-17.7Q302.22-20.75 304.57-22.38 306.92-24 310.27-24L310.27-24ZM332.92-24L341.76-24 341.76-19.8 332.92-19.8Q331.47-19.8 330.42-19.25 329.37-18.7 329.37-17.7L329.37-17.7Q329.37-17.1 329.62-16.63 329.87-16.15 330.19-15.85 330.51-15.55 331.19-15.23 331.87-14.9 332.24-14.78 332.62-14.65 335.42-13.75 338.22-12.85 339.56-12.25 340.92-11.65 341.64-10.63 342.37-9.6 342.56-8.63 342.76-7.65 342.76-6.7L342.76-6.7Q342.76 0 333.56 0L333.56 0 324.92 0 324.92-4.2 333.56-4.2Q338.26-4.2 338.26-6.7L338.26-6.7Q338.26-7.9 336.89-8.7 335.51-9.5 333.54-10.05 331.56-10.6 329.59-11.33 327.62-12.05 326.24-13.68 324.87-15.3 324.87-17.7L324.87-17.7Q324.87-20.75 327.22-22.38 329.56-24 332.92-24L332.92-24ZM385.21-4.5L385.21-4.5Q389.01-8.3 389.46-16.4L389.46-16.4 390.46-35 394.96-35 393.96-16.2Q393.61-9.6 391.63-5.7 389.66-1.8 385.11 1L385.11 1Q381.11-1.85 379.56-6.03 378.01-10.2 377.16-17.35L377.16-17.35 376.96-17.35Q376.56-9.9 375.03-6.25 373.51-2.6 369.01 1L369.01 1Q364.46-1.8 362.48-5.7 360.51-9.6 360.16-16.2L360.16-16.2 359.16-35 363.66-35 364.66-16.4Q365.11-8.3 368.91-4.5L368.91-4.5Q371.36-6.6 372.56-10.78 373.76-14.95 374.81-24L374.81-24 379.31-24Q380.71-16.2 381.86-11.9 383.01-7.6 383.63-6.45 384.26-5.3 385.21-4.5ZM414.06-14.1L414.06-14.1 414.06-9.6Q412.16-11.05 409.41-11.05L409.41-11.05Q407.06-11.05 405.76-10.13 404.46-9.2 404.46-7.5L404.46-7.5Q404.46-4.2 409.36-4.2L409.36-4.2 415.96-4.2 415.96-13.75Q415.96-19.8 410.06-19.8L410.06-19.8 402.06-19.8 402.06-24 410.31-24Q415.16-24 417.76-21.6 420.36-19.2 420.36-14.7L420.36-14.7 420.36 0 409.21 0Q404.96 0 402.46-1.9 399.96-3.8 399.96-7.45 399.96-11.1 402.61-13 405.26-14.9 409.26-14.9L409.26-14.9Q411.51-14.9 414.06-14.1ZM433.65-24L442.5-24 442.5-19.8 433.65-19.8Q432.2-19.8 431.15-19.25 430.1-18.7 430.1-17.7L430.1-17.7Q430.1-17.1 430.35-16.63 430.6-16.15 430.93-15.85 431.25-15.55 431.93-15.23 432.6-14.9 432.98-14.78 433.35-14.65 436.15-13.75 438.95-12.85 440.3-12.25 441.65-11.65 442.38-10.63 443.1-9.6 443.3-8.63 443.5-7.65 443.5-6.7L443.5-6.7Q443.5 0 434.3 0L434.3 0 425.65 0 425.65-4.2 434.3-4.2Q439-4.2 439-6.7L439-6.7Q439-7.9 437.63-8.7 436.25-9.5 434.28-10.05 432.3-10.6 430.33-11.33 428.35-12.05 426.98-13.68 425.6-15.3 425.6-17.7L425.6-17.7Q425.6-20.75 427.95-22.38 430.3-24 433.65-24L433.65-24ZM450.45-19.8L446-19.8 454.95-28.75 454.95-24 461.7-24 461.7-19.8 454.95-19.8 454.95-9.5Q454.95-7.75 455.53-6.6 456.1-5.45 457.2-4.98 458.3-4.5 459.28-4.35 460.25-4.2 461.7-4.2L461.7-4.2 461.7 0Q455.95 0 453.2-2.2 450.45-4.4 450.45-9.5L450.45-9.5 450.45-19.8ZM478.2-24.5L478.2-24.5Q486.7-24.15 486.7-17.45L486.7-17.45Q486.7-9.1 475.75-9.1L475.75-9.1 473.7-9.1 473.7-12.95 476.1-12.95Q479.45-12.95 480.75-13.98 482.05-15 482.05-17.4L482.05-17.4Q482.05-18.95 480.9-19.73 479.75-20.5 477.95-20.5L477.95-20.5Q474.4-20.5 472.37-18 470.35-15.5 470.35-12L470.35-12Q470.35-8.3 472.52-6 474.7-3.7 478.2-3.7L478.2-3.7Q481.35-3.7 483.35-5.25L483.35-5.25 486.35-2.3Q482.9 0.5 478.2 0.5L478.2 0.5Q472.5 0.5 469.1-2.85 465.7-6.2 465.7-11.5L465.7-11.5Q465.7-17.4 469.05-21.05 472.4-24.7 478.2-24.5Z" opacity="1" transform="matrix(1,0,0,1,0,0)" fill="#e65728" class="undefined-text-1" data-fill-palette-color="secondary" id="text-1"></path></svg></g></svg></g></svg></g></svg></g></svg></g></svg></g></svg></g></svg></g></svg><rect width="395.52" height="247.2" fill="none" stroke="none" visibility="hidden"></rect></g></svg></g></svg>